<svg width="24" height="24" viewBox="0 0 24 24" fill="none" xmlns="http://www.w3.org/2000/svg">
<path d="M11.9906 1.78864C6.19453 1.78629 1.5 6.47848 1.5 12.2699C1.5 16.8496 4.43672 20.7425 8.52656 22.1722C9.07734 22.3105 8.99297 21.9191 8.99297 21.6519V19.8355C5.8125 20.2082 5.68359 18.1035 5.47031 17.7519C5.03906 17.016 4.01953 16.8285 4.32422 16.4769C5.04844 16.1043 5.78672 16.5707 6.64219 17.8339C7.26094 18.7504 8.46797 18.5957 9.07969 18.4433C9.21328 17.8925 9.49922 17.4003 9.89297 17.0183C6.59766 16.4277 5.22422 14.4168 5.22422 12.0261C5.22422 10.866 5.60625 9.79957 6.35625 8.93942C5.87812 7.52145 6.40078 6.30738 6.47109 6.12692C7.83281 6.00504 9.24844 7.10192 9.35859 7.18863C10.132 6.98004 11.0156 6.86988 12.0047 6.86988C12.9984 6.86988 13.8844 6.98473 14.6648 7.19567C14.9297 6.9941 16.2422 6.05192 17.5078 6.16676C17.5758 6.34723 18.0867 7.53317 17.6367 8.93238C18.3961 9.79488 18.7828 10.8707 18.7828 12.0332C18.7828 14.4285 17.4 16.4418 14.0953 17.023C14.3784 17.3014 14.6031 17.6333 14.7564 17.9995C14.9098 18.3657 14.9886 18.7588 14.9883 19.1558V21.7925C15.007 22.0035 14.9883 22.2121 15.3398 22.2121C19.4906 20.8129 22.4789 16.8918 22.4789 12.2722C22.4789 6.47848 17.782 1.78864 11.9906 1.78864V1.78864Z" fill="black"/>
</svg>
