<svg width="32" height="24" viewBox="0 0 32 24" fill="none" xmlns="http://www.w3.org/2000/svg">
<g clipPath="url(#clip0)">
<path d="M24.7273 23.8818V11.5821L28.5616 8.09236L32 6.15582V21.7112C32 22.9122 31.0219 23.8818 29.8181 23.8818H24.7273V23.8818Z" fill="#4285F4"/>
<path d="M7.27267 23.8819H2.18179C0.974416 23.8819 -8.58307e-05 22.9088 -8.58307e-05 21.7114V6.15613L3.89442 8.3742L7.27267 11.5822V23.8819V23.8819Z" fill="#34A853"/>
<path d="M24.7272 11.5822L25.249 6.77637L24.7272 2.1767L16 8.68828L7.27272 2.1767L6.68896 6.52803L7.27272 11.5822L16 18.0938L24.7272 11.5822Z" fill="#EA4335"/>
<path d="M7.27267 2.17675V11.5823L-8.58307e-05 6.15602V3.26197C-8.58307e-05 0.577825 3.07992 -0.952331 5.23617 0.65741L7.27267 2.17675Z" fill="#FBBC04"/>
<path d="M32 6.15583L28.6551 8.65159L24.7273 11.5821V2.17656L26.7638 0.657223C28.9238 -0.952642 32 0.577637 32 3.26166V6.15571V6.15583Z" fill="#C5221F"/>
</g>
<defs>
<clipPath id="clip0">
<rect width="32" height="24" fill="white" transform="matrix(-1 0 0 1 32 0)"/>
</clipPath>
</defs>
</svg>
