<svg width="24" height="24" viewBox="0 0 24 24" fill="none" xmlns="http://www.w3.org/2000/svg">
<g clipPath="url(#clip0)">
<path d="M20.4477 20.4488H16.8917V14.8798C16.8917 13.5518 16.868 11.8423 15.0422 11.8423C13.1901 11.8423 12.9067 13.2892 12.9067 14.7831V20.4484H9.35072V8.99629H12.7644V10.5614H12.8123C13.1539 9.9772 13.6476 9.49665 14.2407 9.17087C14.8339 8.84509 15.5042 8.6863 16.1805 8.71139C19.7847 8.71139 20.4492 11.0821 20.4492 14.1663L20.4477 20.4488V20.4488ZM5.33822 7.43095C4.1985 7.43114 3.27441 6.50733 3.27422 5.36761C3.27403 4.22789 4.19775 3.30379 5.33747 3.30361C6.47719 3.30333 7.40128 4.22714 7.40147 5.36686C7.40157 5.91417 7.18425 6.43911 6.79732 6.8262C6.41039 7.21329 5.88554 7.43083 5.33822 7.43095V7.43095ZM7.11628 20.4489H3.5565V8.99629H7.11619V20.4488L7.11628 20.4489ZM22.2205 0.00107535H1.76963C0.803065 -0.00979965 0.0104087 0.764482 -0.00140381 1.73104V22.2673C0.0100337 23.2343 0.802596 24.0093 1.76953 23.9992H22.2205C23.1895 24.0112 23.9852 23.2362 23.9986 22.2673V1.72945C23.9848 0.761013 23.1891 -0.0131746 22.2205 -0.000518397" fill="#0A66C2"/>
</g>
<defs>
<clipPath id="clip0">
<rect width="24" height="24" fill="white"/>
</clipPath>
</defs>
</svg>
