<svg width="24" height="24" viewBox="0 0 24 24" fill="none" xmlns="http://www.w3.org/2000/svg">
<path d="M2.70968 10.8387H3.87097V22.4516C3.87097 23.3055 4.56542 24 5.41935 24H12.3871C13.241 24 13.9355 23.3055 13.9355 22.4516V17.9857C14.1828 17.8196 14.4132 17.6249 14.6137 17.3965L14.7105 17.2866L14.7093 16.2581H13.1613C12.521 16.2581 12 15.737 12 15.0968C12 14.4565 12.521 13.9355 13.1613 13.9355H14.7097V12.9062L14.6133 12.7966C14.4128 12.5686 14.1828 12.3739 13.9359 12.2079V10.8387H16.2585C18.3929 10.8387 20.1294 9.10219 20.1294 6.96774C20.1294 4.83329 18.3925 3.09677 16.2581 3.09677C16.0893 3.09677 15.919 3.10839 15.7483 3.13123C14.8599 1.21858 12.9662 0 10.8387 0C8.54632 0 6.50555 1.45548 5.73948 3.5849C5.51187 3.52297 5.27574 3.48387 5.03226 3.48387C3.81019 3.48387 2.76194 4.2871 2.43019 5.43368C1.06684 5.57381 0 6.72929 0 8.12903C0 9.62323 1.21548 10.8387 2.70968 10.8387ZM13.1613 9.29032H4.64516V7.74194C4.64516 7.31497 4.99239 6.96774 5.41935 6.96774H12.3871C12.8141 6.96774 13.1613 7.31497 13.1613 7.74194V9.29032ZM12.3871 23.2258H5.41935C4.99239 23.2258 4.64516 22.8786 4.64516 22.4516V20.9032H13.1613V22.4516C13.1613 22.8786 12.8141 23.2258 12.3871 23.2258ZM13.1613 20.129H4.64516V16.6452H8.88C9.46606 17.8293 10.6634 18.5806 12 18.5806C12.4003 18.5806 12.7916 18.5086 13.1613 18.3774V20.129ZM13.1613 13.1613C12.0941 13.1613 11.2258 14.0295 11.2258 15.0968C11.2258 16.164 12.0941 17.0323 13.1613 17.0323H13.8929C13.3885 17.5266 12.7095 17.8065 12 17.8065C10.8917 17.8065 9.90619 17.1418 9.48929 16.1129L9.39135 15.871H4.64516V14.3226H9.39135L9.48929 14.0806C9.90619 13.0517 10.8917 12.3871 12 12.3871C12.7095 12.3871 13.3885 12.667 13.8929 13.1613H13.1613ZM12 11.6129C10.6634 11.6129 9.46606 12.3643 8.88 13.5484H4.64516V10.0645H13.1613V11.8165C12.7916 11.6849 12.4003 11.6129 12 11.6129ZM2.73484 6.19355L3.06852 6.19935L3.12387 5.87032C3.28026 4.93626 4.08271 4.25806 5.03226 4.25806C5.85135 4.25806 6.5849 4.77639 6.85781 5.54826L7.58787 5.29045C7.37729 4.69471 6.96697 4.21316 6.45252 3.89535C7.0951 2.04426 8.85639 0.774194 10.8387 0.774194C12.7525 0.774194 14.4465 1.92581 15.1541 3.70839L15.2752 4.01381L15.5965 3.94374C15.8175 3.89535 16.0401 3.87097 16.2581 3.87097C17.9655 3.87097 19.3548 5.26026 19.3548 6.96774C19.3548 8.67523 17.9655 10.0645 16.2581 10.0645H13.9355V7.74194C13.9355 6.888 13.241 6.19355 12.3871 6.19355H5.41935C4.56542 6.19355 3.87097 6.888 3.87097 7.74194V10.0645H2.70968C1.64245 10.0645 0.774194 9.19626 0.774194 8.12903C0.774194 7.06181 1.64245 6.19355 2.73484 6.19355V6.19355ZM8.51613 7.74194H10.0645V8.51613H8.51613V7.74194ZM7.74194 21.6774H10.0645V22.4516H7.74194V21.6774ZM23.3145 13.6111C23.2548 13.4671 23.2599 13.3057 23.3284 13.169L23.4979 12.8307L22.008 11.3408L21.6701 11.5103C21.533 11.5788 21.3716 11.5835 21.2195 11.5204C21.0743 11.4612 20.9636 11.3431 20.9148 11.1975L20.7952 10.8387H18.689L18.5694 11.1975C18.521 11.3431 18.4099 11.4612 18.2563 11.5243C18.1119 11.5835 17.9508 11.5788 17.8142 11.5103L17.4759 11.3408L15.9859 12.8307L16.1555 13.1686C16.224 13.3057 16.229 13.4667 16.1655 13.6192C16.1063 13.7644 15.9883 13.8751 15.8427 13.9239L15.4839 14.0435V16.1497L15.8427 16.2693C15.9883 16.3177 16.1063 16.4288 16.1694 16.5825C16.229 16.7265 16.224 16.8879 16.1555 17.0245L15.9859 17.3628L17.4759 18.8528L17.8138 18.6832C17.9508 18.6143 18.1123 18.6097 18.2644 18.6732C18.4095 18.7324 18.5203 18.8505 18.569 18.996L18.6886 19.3548H20.7948L20.9145 18.996C20.9628 18.8505 21.0739 18.7324 21.2276 18.6693C21.3712 18.6093 21.5326 18.6143 21.6697 18.6832L22.008 18.8528L23.4979 17.3628L23.3284 17.0249C23.2599 16.8879 23.2548 16.7268 23.3179 16.5743C23.3775 16.4292 23.4952 16.3181 23.6412 16.2697L24 16.1501V14.0439L23.6412 13.9243C23.4952 13.8755 23.3775 13.7644 23.3145 13.6111V13.6111ZM23.2258 15.6058C22.9459 15.7459 22.723 15.9852 22.5991 16.2867C22.4775 16.5805 22.4667 16.9045 22.5654 17.2003L21.8454 17.9203C21.5497 17.8223 21.2249 17.8332 20.9253 17.9566C20.6295 18.0778 20.3915 18.3004 20.251 18.5806H19.2329C19.0924 18.3004 18.8535 18.0778 18.552 17.9539C18.2582 17.832 17.9334 17.8215 17.6385 17.9203L16.9185 17.2003C17.0168 16.9045 17.0059 16.5794 16.8821 16.2797C16.7605 15.984 16.5379 15.7459 16.2581 15.6058V14.5877C16.5383 14.4472 16.7609 14.2084 16.8848 13.9068C17.0063 13.613 17.0172 13.289 16.9185 12.9933L17.6385 12.2733C17.9346 12.3716 18.2594 12.3608 18.5586 12.2369C18.8543 12.1157 19.0924 11.8932 19.2329 11.6129H20.251C20.3915 11.8932 20.6303 12.1157 20.9319 12.2396C21.2253 12.3612 21.5501 12.3716 21.8454 12.2733L22.5654 12.9933C22.4671 13.289 22.4779 13.6142 22.6018 13.9134C22.723 14.2092 22.9455 14.4472 23.2258 14.5877V15.6058ZM19.7419 12.3871C18.2477 12.3871 17.0323 13.6026 17.0323 15.0968C17.0323 16.591 18.2477 17.8065 19.7419 17.8065C21.2361 17.8065 22.4516 16.591 22.4516 15.0968C22.4516 13.6026 21.2361 12.3871 19.7419 12.3871ZM19.7419 17.0323C18.6747 17.0323 17.8065 16.164 17.8065 15.0968C17.8065 14.0295 18.6747 13.1613 19.7419 13.1613C20.8092 13.1613 21.6774 14.0295 21.6774 15.0968C21.6774 16.164 20.8092 17.0323 19.7419 17.0323ZM19.7419 13.9355C19.1017 13.9355 18.5806 14.4565 18.5806 15.0968C18.5806 15.737 19.1017 16.2581 19.7419 16.2581C20.3822 16.2581 20.9032 15.737 20.9032 15.0968C20.9032 14.4565 20.3822 13.9355 19.7419 13.9355ZM19.7419 15.4839C19.5286 15.4839 19.3548 15.3101 19.3548 15.0968C19.3548 14.8835 19.5286 14.7097 19.7419 14.7097C19.9552 14.7097 20.129 14.8835 20.129 15.0968C20.129 15.3101 19.9552 15.4839 19.7419 15.4839ZM9.46258 2.64426L9.11806 1.95097C9.65574 1.68387 10.2348 1.54839 10.8387 1.54839C12.4765 1.54839 13.9436 2.58542 14.4894 4.12916L13.7594 4.38697C13.3227 3.15213 12.1494 2.32258 10.8387 2.32258C10.3552 2.32258 9.89226 2.43097 9.46258 2.64426V2.64426ZM8.26335 3.6991L7.62 3.26865C7.80116 2.99806 8.01561 2.7511 8.25832 2.53432L8.77432 3.11148C8.58 3.2849 8.40813 3.48271 8.26335 3.6991ZM16.2581 9.29032V8.51613C17.112 8.51613 17.8065 7.82168 17.8065 6.96774C17.8065 6.11381 17.112 5.41935 16.2581 5.41935V4.64516C17.539 4.64516 18.5806 5.68684 18.5806 6.96774C18.5806 8.24864 17.539 9.29032 16.2581 9.29032ZM3.09677 13.9355H2.32258V14.7097H1.54839V13.9355H0.774194V13.1613H1.54839V12.3871H2.32258V13.1613H3.09677V13.9355ZM3.09677 17.0323H2.32258V17.8065H1.54839V17.0323H0.774194V16.2581H1.54839V15.4839H2.32258V16.2581H3.09677V17.0323ZM1.54839 20.9032V20.129H0.774194V19.3548H1.54839V18.5806H2.32258V19.3548H3.09677V20.129H2.32258V20.9032H1.54839ZM21.6774 3.09677H20.9032V2.32258H21.6774V1.54839H22.4516V2.32258H23.2258V3.09677H22.4516V3.87097H21.6774V3.09677ZM21.6774 6.19355H20.9032V5.41935H21.6774V4.64516H22.4516V5.41935H23.2258V6.19355H22.4516V6.96774H21.6774V6.19355ZM21.6774 9.29032H20.9032V8.51613H21.6774V7.74194H22.4516V8.51613H23.2258V9.29032H22.4516V10.0645H21.6774V9.29032Z" fill="url(#paint0_linear)"/>
<defs>
<linearGradient id="paint0_linear" x1="12" y1="24" x2="12" y2="0" gradientUnits="userSpaceOnUse">
<stop stopColor="#9F2FFF"/>
<stop offset="1" stopColor="#0BB1D3"/>
</linearGradient>
</defs>
</svg>
