<svg width="24" height="24" viewBox="0 0 24 24" fill="none" xmlns="http://www.w3.org/2000/svg">
<g clipPath="url(#clip0)">
<path d="M5.80645 6.19355C4.95249 6.19355 4.25806 6.88798 4.25806 7.74194C4.25806 8.59589 4.95249 9.29032 5.80645 9.29032C6.66041 9.29032 7.35484 8.59589 7.35484 7.74194C7.35484 6.88798 6.66041 6.19355 5.80645 6.19355ZM5.80645 8.51613C5.37947 8.51613 5.03226 8.16891 5.03226 7.74194C5.03226 7.31496 5.37947 6.96774 5.80645 6.96774C6.23343 6.96774 6.58064 7.31496 6.58064 7.74194C6.58064 8.16891 6.23343 8.51613 5.80645 8.51613ZM22.0645 0H1.37261C0.615801 0 0 0.615801 0 1.37261C0 1.85648 0.258947 2.30935 0.675529 2.55488L4.25806 4.66614V5.06439C3.33398 5.60043 2.70968 6.59879 2.70968 7.74194C2.70968 8.33695 2.88111 8.89075 3.17295 9.36309L0.171812 15.0798C0.0591608 15.2767 0 15.5005 0 15.7277C0 16.2581 0.319052 16.7132 0.774194 16.9173V18.5806H1.54839V17.0226C1.95873 16.9761 2.3292 16.7365 2.5424 16.3626L5.44487 10.8158C5.56376 10.8298 5.68416 10.8387 5.80645 10.8387C5.92874 10.8387 6.04914 10.8298 6.16803 10.8158L9.07749 16.3749C9.28484 16.7382 9.65455 16.9761 10.0649 17.0226V18.5806H10.8391V16.917C11.2942 16.7128 11.6133 16.2577 11.6133 15.7273C11.6133 15.5001 11.5541 15.2763 11.4481 15.0917L8.44033 9.36271C8.73179 8.89075 8.90323 8.33695 8.90323 7.74194C8.90323 7.62305 8.8951 7.50624 8.88187 7.39037L13.9355 10.3684V21.2903C13.9355 22.7841 15.1514 24 16.6452 24C18.1389 24 19.3548 22.7841 19.3548 21.2903V13.5624L21.5822 14.8745C21.8288 15.02 22.1103 15.0968 22.3962 15.0968C23.2808 15.0968 24 14.3776 24 13.493V1.93548C24 0.868322 23.1317 0 22.0645 0V0ZM6.58064 4.74704C6.33247 4.68277 6.07428 4.64516 5.80645 4.64516C5.53862 4.64516 5.28043 4.68277 5.03226 4.74704V2.70968C5.03226 2.49609 5.20577 2.32258 5.41935 2.32258H6.19355C6.40713 2.32258 6.58064 2.49609 6.58064 2.70968V4.74704ZM1.86347 15.991C1.76934 16.1554 1.59299 16.2581 1.40285 16.2581H1.30456C1.01178 16.2581 0.774194 16.0205 0.774194 15.7277C0.774194 15.6356 0.798198 15.5442 0.850932 15.4521L3.70691 10.0118C3.98664 10.2709 4.31269 10.4786 4.67295 10.6212L1.86347 15.991ZM3.48387 7.74194C3.48387 6.461 4.52552 5.41935 5.80645 5.41935C7.08739 5.41935 8.12903 6.461 8.12903 7.74194C8.12903 9.02287 7.08739 10.0645 5.80645 10.0645C4.52552 10.0645 3.48387 9.02287 3.48387 7.74194ZM10.8387 15.7277C10.8387 16.0205 10.6011 16.2581 10.3083 16.2581H10.2101C10.0199 16.2581 9.84356 16.1554 9.75605 16.0033L6.93939 10.6212C7.29984 10.4786 7.62626 10.2709 7.90562 10.0118L10.7686 15.4646C10.8143 15.5442 10.8387 15.6356 10.8387 15.7277ZM15.1641 6.96774L16.6452 5.23979L18.1263 6.96774H15.1641ZM16.2581 7.74194V18.5806H14.7097V7.74194H16.2581ZM14.7097 19.3548H18.5806V20.129H14.7097V19.3548ZM17.0323 18.5806V7.74194H18.5806V18.5806H17.0323ZM16.6452 4.05053L14.6964 6.32397L10.534 3.87097H20.129V9.52489L19.3548 9.06899V7.21157L16.6452 4.05053ZM16.6452 23.2258C15.578 23.2258 14.7097 22.3575 14.7097 21.2903V20.9032H18.5806V21.2903C18.5806 22.3575 17.7123 23.2258 16.6452 23.2258ZM23.2258 13.493C23.2258 13.9506 22.8538 14.3226 22.3962 14.3226C22.2484 14.3226 22.1025 14.2827 21.9751 14.2077L19.3548 12.6638V9.96736L20.9032 10.8797V3.09677H7.69506L14.1848 6.92087L13.9355 7.21157V9.46988L8.54051 6.2907C8.26796 5.77942 7.85534 5.35471 7.35484 5.06401V2.70968C7.35484 2.06949 6.83373 1.54839 6.19355 1.54839H5.41935C4.77917 1.54839 4.25806 2.06949 4.25806 2.70968V3.76758L1.0683 1.88785C0.886845 1.78106 0.774194 1.58317 0.774194 1.37223C0.774194 1.0424 1.0424 0.774194 1.37261 0.774194H22.0645C22.7047 0.774194 23.2258 1.2953 23.2258 1.93548V13.493Z" fill="url(#paint0_linear)"/>
</g>
<defs>
<linearGradient id="paint0_linear" x1="12" y1="24" x2="12" y2="0" gradientUnits="userSpaceOnUse">
<stop stopColor="#9F2FFF"/>
<stop offset="1" stopColor="#0BB1D3"/>
</linearGradient>
<clipPath id="clip0">
<rect width="24" height="24" fill="white"/>
</clipPath>
</defs>
</svg>
