<svg width="24" height="24" viewBox="0 0 24 24" fill="none" xmlns="http://www.w3.org/2000/svg">
<g clipPath="url(#clip0)">
<path d="M6.19345 23.2259C6.19345 22.372 5.49901 21.6776 4.64509 21.6776H2.32254V17.4196C2.32254 16.9156 2.64731 16.4898 3.09672 16.3295V18.1937C3.09672 19.261 3.96497 20.1292 5.03218 20.1292H5.31127L5.39953 19.8644C5.43165 19.7673 6.19345 17.4509 6.19345 14.7099C6.19345 11.9689 5.43165 9.65259 5.39953 9.55543L5.31127 9.29066H5.03218C3.96497 9.29066 3.09672 10.1589 3.09672 11.2261V13.1844C1.35753 13.3779 0 14.8555 0 16.6454V24.0001H6.19345V23.2259ZM3.87091 11.2261C3.87091 10.6815 4.24793 10.2232 4.75463 10.0981C4.95476 10.7999 5.41927 12.6514 5.41927 14.7099C5.41927 16.7685 4.95476 18.6199 4.75463 19.3217C4.24793 19.1967 3.87091 18.7384 3.87091 18.1937V11.2261ZM0.774181 16.6454C0.774181 15.2832 1.78565 14.1556 3.09672 13.9667V15.5232C2.21454 15.7032 1.54836 16.4851 1.54836 17.4196V21.7209C1.26308 21.7794 0.999081 21.8967 0.774181 22.0654V16.6454ZM0.840374 23.2259C1.00024 22.7753 1.43069 22.4517 1.93545 22.4517H4.64509C5.07205 22.4517 5.41927 22.799 5.41927 23.2259H0.840374ZM2.70963 1.54885C2.06939 1.54885 1.54836 2.06987 1.54836 2.71012V5.41976H2.32254V4.64557H3.09672V5.41976H3.87091V2.71012C3.87091 2.06987 3.34988 1.54885 2.70963 1.54885ZM2.32254 3.87139V2.71012C2.32254 2.49684 2.49635 2.32303 2.70963 2.32303C2.92292 2.32303 3.09672 2.49684 3.09672 2.71012V3.87139H2.32254ZM5.80636 1.54885H4.64509V5.41976H5.41927V3.87139H5.80636C6.44661 3.87139 6.96763 3.35037 6.96763 2.71012C6.96763 2.06987 6.44661 1.54885 5.80636 1.54885ZM5.80636 3.09721H5.41927V2.32303H5.80636C6.01964 2.32303 6.19345 2.49684 6.19345 2.71012C6.19345 2.92341 6.01964 3.09721 5.80636 3.09721ZM13.5486 9.29027C12.9083 9.29027 12.3873 9.8113 12.3873 10.4515C12.3873 11.0918 12.9083 11.6128 13.5486 11.6128C14.1888 11.6128 14.7098 11.0918 14.7098 10.4515C14.7098 9.8113 14.1888 9.29027 13.5486 9.29027ZM13.5486 10.8386C13.3353 10.8386 13.1615 10.6648 13.1615 10.4515C13.1615 10.2383 13.3353 10.0645 13.5486 10.0645C13.7618 10.0645 13.9356 10.2383 13.9356 10.4515C13.9356 10.6648 13.7618 10.8386 13.5486 10.8386ZM16.6882 3.09683H13.5486C12.851 3.09683 12.1941 3.26869 11.6127 3.56714V1.93594C11.6127 0.868732 10.7445 0.000488281 9.67726 0.000488281H1.93545C0.868244 0.000488281 0 0.868732 0 1.93594V5.03267C0 6.09987 0.868244 6.96812 1.93545 6.96812H5.6461L6.92079 8.24281C7.0973 8.41932 7.33188 8.51648 7.58156 8.51648C8.09677 8.51648 8.51599 8.09726 8.51599 7.58204V6.96812H9.3103C9.29869 7.09586 9.29056 7.22437 9.29056 7.35521C9.29056 7.93701 9.721 8.42009 10.2804 8.50332C10.1433 8.73402 10.0647 9.00344 10.0647 9.29066V14.3225C10.0647 16.2432 11.6278 17.8063 13.5486 17.8063H13.9171C13.0949 18.3095 12.5371 19.1669 12.4171 20.1296H10.4514C9.8112 20.1296 9.29017 20.6506 9.29017 21.2909V21.6779H7.74181C7.31485 21.6779 6.96763 22.0252 6.96763 22.4521V23.2263C6.96763 23.6533 7.31485 24.0005 7.74181 24.0005H12.774H15.8707C17.3645 24.0005 18.5803 22.7846 18.5803 21.2909V18.9679C18.5803 18.4883 18.3984 18.0544 18.1085 17.7161L19.4041 17.1978C22.1958 16.081 24 13.4163 24 10.409C24 6.37664 20.7198 3.09683 16.6882 3.09683V3.09683ZM7.74181 6.19394V7.58204C7.74181 7.71249 7.56026 7.78798 7.46814 7.69546L5.96661 6.19394H1.93545C1.2952 6.19394 0.774181 5.67291 0.774181 5.03267V1.93594C0.774181 1.29569 1.2952 0.774669 1.93545 0.774669H9.67726C10.3175 0.774669 10.8385 1.29569 10.8385 1.93594V4.07307C10.6303 4.24532 10.4383 4.43732 10.266 4.64557H9.29017V2.32303H10.0644V1.54885H7.74181V2.32303H8.51599V4.64557H7.74181V5.41976H9.76049C9.63468 5.66517 9.53249 5.92375 9.45546 6.19394H7.74181ZM10.8389 13.9354H13.8966C13.7169 14.8175 12.9346 15.4837 12.0002 15.4837H11.1041C10.9357 15.1311 10.8389 14.7386 10.8389 14.3225V13.9354ZM11.6557 16.2579H12.0002C13.4944 16.2579 14.7098 15.0424 14.7098 13.5483V13.1612H10.8389V9.29066C10.8389 8.8637 11.1861 8.51648 11.6131 8.51648H15.8707C15.8726 8.51648 15.8746 8.51609 15.8761 8.51609H16.2582C16.8984 8.51609 17.4195 9.03712 17.4195 9.67736V11.2257H18.1936C18.8339 11.2257 19.3549 11.7468 19.3549 12.387C19.3549 13.0272 18.8339 13.5483 18.1936 13.5483H17.5673L17.4605 13.7623C16.9511 14.7812 16.8802 15.9602 17.2472 17.0321H13.5486C12.8123 17.0321 12.1446 16.736 11.6557 16.2579ZM14.7222 18.2638L14.8643 18.2104C14.7636 18.4469 14.7094 18.7028 14.7094 18.9675V20.1292H13.194C13.3326 19.2908 13.9113 18.5677 14.7222 18.2638ZM10.0644 21.2905C10.0644 21.0772 10.2382 20.9034 10.4514 20.9034H11.6839C11.6406 21.0253 11.6127 21.1542 11.6127 21.2905V21.6776H10.0644V21.2905ZM7.74181 22.4517H11.6127V22.8388C11.6127 22.9751 11.6406 23.1044 11.6839 23.2259H7.74181V22.4517ZM17.8062 21.2901C17.8062 22.3573 16.9379 23.2255 15.8707 23.2255H12.774C12.5607 23.2255 12.3869 23.0517 12.3869 22.8384V21.2901C12.3869 21.0772 12.5603 20.9038 12.7732 20.903H12.774H15.484V18.9672C15.484 18.6567 15.6048 18.3652 15.8239 18.1457C16.0418 17.9278 16.331 17.8078 16.6391 17.8063H16.6449V17.8059C17.2851 17.8059 17.8062 18.3269 17.8062 18.9672V21.2901ZM19.1165 16.4782L18.0237 16.9152C17.6982 16.0775 17.7102 15.147 18.0547 14.3221H18.1936C19.2609 14.3221 20.1291 13.4538 20.1291 12.3866C20.1291 11.3194 19.2609 10.4512 18.1936 10.4512V9.67698C18.1936 8.9028 17.7338 8.23816 17.0753 7.92888C17.2871 7.66411 17.4191 7.33276 17.4191 6.96812C17.4191 6.1142 16.7246 5.41976 15.8707 5.41976H15.0965V6.19394H15.8707C16.2977 6.19394 16.6449 6.54116 16.6449 6.96812C16.6449 7.39314 16.3008 7.73882 15.8761 7.74191H15.0969V7.7423L10.4518 7.74191C10.2385 7.74191 10.0647 7.56811 10.0647 7.35482C10.0647 5.43408 11.6278 3.87101 13.5486 3.87101H16.6882C20.2932 3.87101 23.2258 6.8036 23.2258 10.4086C23.2258 13.0969 21.6128 15.4795 19.1165 16.4782Z" fill="url(#paint0_linear)"/>
</g>
<defs>
<linearGradient id="paint0_linear" x1="12.0002" y1="24.0001" x2="12.0002" y2="0.000488281" gradientUnits="userSpaceOnUse">
<stop stopColor="#9F2FFF"/>
<stop offset="1" stopColor="#0BB1D3"/>
</linearGradient>
<clipPath id="clip0">
<rect width="24" height="24" fill="white"/>
</clipPath>
</defs>
</svg>
