<svg width="16" height="16" viewBox="0 0 16 16" fill="none" xmlns="http://www.w3.org/2000/svg">
<path d="M7.99375 1.19244C4.12969 1.19088 1 4.31901 1 8.17994C1 11.2331 2.95781 13.8284 5.68437 14.7815C6.05156 14.8737 5.99531 14.6128 5.99531 14.4346V13.2237C3.875 13.4721 3.78906 12.069 3.64687 11.8346C3.35937 11.344 2.67969 11.219 2.88281 10.9846C3.36562 10.7362 3.85781 11.0471 4.42812 11.8893C4.84062 12.5003 5.64531 12.3971 6.05312 12.2956C6.14219 11.9284 6.33281 11.6003 6.59531 11.3456C4.39844 10.9518 3.48281 9.61119 3.48281 8.01744C3.48281 7.244 3.7375 6.53307 4.2375 5.95963C3.91875 5.01432 4.26719 4.20494 4.31406 4.08463C5.22188 4.00338 6.16562 4.73463 6.23906 4.79244C6.75469 4.65338 7.34375 4.57994 8.00313 4.57994C8.66563 4.57994 9.25625 4.65651 9.77656 4.79713C9.95313 4.66276 10.8281 4.03463 11.6719 4.11119C11.7172 4.23151 12.0578 5.02213 11.7578 5.95494C12.2641 6.52994 12.5219 7.24713 12.5219 8.02213C12.5219 9.619 11.6 10.9612 9.39688 11.3487C9.58558 11.5343 9.73541 11.7556 9.83763 11.9997C9.93984 12.2438 9.99238 12.5059 9.99219 12.7706V14.5284C10.0047 14.669 9.99219 14.8081 10.2266 14.8081C12.9938 13.8753 14.9859 11.2612 14.9859 8.1815C14.9859 4.31901 11.8547 1.19244 7.99375 1.19244V1.19244Z" fill="black"/>
</svg>
