<svg width="22" height="16" viewBox="0 0 22 16" fill="none" xmlns="http://www.w3.org/2000/svg">
<g clipPath="url(#clip0)">
<path d="M16.4848 15.9211V7.72131L19.0411 5.39485L21.3333 4.10382V14.4741C21.3333 15.2747 20.6812 15.9211 19.8787 15.9211H16.4848V15.9211Z" fill="#4285F4"/>
<path d="M4.84839 15.9213H1.45447C0.64955 15.9213 -0.000118111 15.2725 -0.000118111 14.4743V4.10413L2.59622 5.58284L4.84839 7.72154V15.9213V15.9213Z" fill="#34A853"/>
<path d="M16.4848 7.72145L16.8326 4.51756L16.4848 1.45111L10.6666 5.79217L4.84845 1.45111L4.45928 4.352L4.84845 7.72145L10.6666 12.0625L16.4848 7.72145Z" fill="#EA4335"/>
<path d="M4.84839 1.45121V7.72155L-0.000118111 4.10405V2.17469C-0.000118111 0.385257 2.05322 -0.634847 3.49072 0.438314L4.84839 1.45121Z" fill="#FBBC04"/>
<path d="M21.3333 4.10385L19.1034 5.76768L16.4848 7.72134V1.451L17.8425 0.438108C19.2825 -0.635136 21.3333 0.385051 21.3333 2.1744V4.10377V4.10385Z" fill="#C5221F"/>
</g>
<defs>
<clipPath id="clip0">
<rect width="21.3333" height="16" fill="white" transform="matrix(-1 0 0 1 21.3333 0)"/>
</clipPath>
</defs>
</svg>
