<svg width="16" height="16" viewBox="0 0 16 16" fill="none" xmlns="http://www.w3.org/2000/svg">
<g clipPath="url(#clip0)">
<path d="M13.6318 13.6326H11.2611V9.91992C11.2611 9.03461 11.2453 7.89492 10.0281 7.89492C8.7934 7.89492 8.60446 8.85955 8.60446 9.85548V13.6324H6.23383V5.99761H8.50965V7.04099H8.54152C8.76928 6.65155 9.0984 6.33118 9.49382 6.11399C9.88925 5.89681 10.3362 5.79094 10.787 5.80767C13.1898 5.80767 13.6328 7.38817 13.6328 9.4443L13.6318 13.6326V13.6326ZM3.55883 4.95405C2.79902 4.95417 2.18296 4.3383 2.18283 3.57849C2.18271 2.81867 2.79852 2.20261 3.55833 2.20249C4.31815 2.2023 4.93421 2.81817 4.93433 3.57799C4.9344 3.94286 4.78952 4.29282 4.53157 4.55088C4.27361 4.80894 3.92371 4.95396 3.55883 4.95405V4.95405ZM4.74421 13.6327H2.37102V5.99761H4.74415V13.6326L4.74421 13.6327ZM14.8137 0.000798282H1.17977C0.535397 -0.00645172 0.00695947 0.509736 -0.000915527 1.15411V14.8449C0.00670947 15.4896 0.535084 16.0063 1.17971 15.9995H14.8137C15.4597 16.0075 15.9901 15.4909 15.9991 14.8449V1.15305C15.9899 0.507423 15.4594 -0.00870172 14.8137 -0.000264218" fill="#0A66C2"/>
</g>
<defs>
<clipPath id="clip0">
<rect width="16" height="16" fill="white"/>
</clipPath>
</defs>
</svg>
