<svg width="16" height="16" viewBox="0 0 16 16" fill="none" xmlns="http://www.w3.org/2000/svg">
<path d="M1.80645 7.22581H2.58065V14.9677C2.58065 15.537 3.04361 16 3.6129 16H8.25806C8.82735 16 9.29032 15.537 9.29032 14.9677V11.9905C9.45523 11.8797 9.60877 11.7499 9.74245 11.5977L9.80697 11.5244L9.80619 10.8387H8.77419C8.34735 10.8387 8 10.4914 8 10.0645C8 9.63768 8.34735 9.29032 8.77419 9.29032H9.80645V8.60413L9.74219 8.5311C9.60852 8.3791 9.45523 8.24929 9.29058 8.13858V7.22581H10.839C12.2619 7.22581 13.4196 6.06813 13.4196 4.64516C13.4196 3.22219 12.2617 2.06452 10.8387 2.06452C10.7262 2.06452 10.6126 2.07226 10.4988 2.08748C9.90658 0.812387 8.64413 0 7.22581 0C5.69755 0 4.33703 0.970322 3.82632 2.38994C3.67458 2.34865 3.51716 2.32258 3.35484 2.32258C2.54013 2.32258 1.84129 2.85806 1.62013 3.62245C0.711226 3.71587 0 4.48619 0 5.41935C0 6.41548 0.810323 7.22581 1.80645 7.22581ZM8.77419 6.19355H3.09677V5.16129C3.09677 4.87665 3.32826 4.64516 3.6129 4.64516H8.25806C8.54271 4.64516 8.77419 4.87665 8.77419 5.16129V6.19355ZM8.25806 15.4839H3.6129C3.32826 15.4839 3.09677 15.2524 3.09677 14.9677V13.9355H8.77419V14.9677C8.77419 15.2524 8.54271 15.4839 8.25806 15.4839ZM8.77419 13.4194H3.09677V11.0968H5.92C6.31071 11.8862 7.1089 12.3871 8 12.3871C8.26684 12.3871 8.52774 12.3391 8.77419 12.2516V13.4194ZM8.77419 8.77419C8.06271 8.77419 7.48387 9.35303 7.48387 10.0645C7.48387 10.776 8.06271 11.3548 8.77419 11.3548H9.26194C8.92568 11.6844 8.47303 11.871 8 11.871C7.26116 11.871 6.60413 11.4279 6.32619 10.7419L6.2609 10.5806H3.09677V9.54839H6.2609L6.32619 9.3871C6.60413 8.70116 7.26116 8.25806 8 8.25806C8.47303 8.25806 8.92568 8.44464 9.26194 8.77419H8.77419ZM8 7.74194C7.1089 7.74194 6.31071 8.24284 5.92 9.03226H3.09677V6.70968H8.77419V7.87768C8.52774 7.78994 8.26684 7.74194 8 7.74194ZM1.82323 4.12903L2.04568 4.1329L2.08258 3.91355C2.18684 3.29084 2.72181 2.83871 3.35484 2.83871C3.9009 2.83871 4.38994 3.18426 4.57187 3.69884L5.05858 3.52697C4.91819 3.12981 4.64465 2.80877 4.30168 2.5969C4.73006 1.36284 5.90426 0.516129 7.22581 0.516129C8.50168 0.516129 9.63097 1.28387 10.1027 2.47226L10.1835 2.67587L10.3977 2.62916C10.545 2.5969 10.6934 2.58065 10.8387 2.58065C11.977 2.58065 12.9032 3.50684 12.9032 4.64516C12.9032 5.78348 11.977 6.70968 10.8387 6.70968H9.29032V5.16129C9.29032 4.592 8.82735 4.12903 8.25806 4.12903H3.6129C3.04361 4.12903 2.58065 4.592 2.58065 5.16129V6.70968H1.80645C1.09497 6.70968 0.516129 6.13084 0.516129 5.41935C0.516129 4.70787 1.09497 4.12903 1.82323 4.12903V4.12903ZM5.67742 5.16129H6.70968V5.67742H5.67742V5.16129ZM5.16129 14.4516H6.70968V14.9677H5.16129V14.4516ZM15.543 9.07406C15.5032 8.97806 15.5066 8.87045 15.5523 8.77935L15.6653 8.55381L14.672 7.56052L14.4467 7.67355C14.3554 7.71923 14.2477 7.72232 14.1463 7.68026C14.0495 7.64077 13.9757 7.56206 13.9432 7.46503L13.8635 7.22581H12.4594L12.3796 7.46503C12.3474 7.56206 12.2733 7.64077 12.1708 7.68284C12.0746 7.72232 11.9672 7.71923 11.8761 7.67355L11.6506 7.56052L10.6573 8.55381L10.7703 8.7791C10.816 8.87045 10.8194 8.97781 10.777 9.07948C10.7375 9.17626 10.6588 9.25006 10.5618 9.28258L10.3226 9.36232V10.7665L10.5618 10.8462C10.6588 10.8785 10.7375 10.9525 10.7796 11.055C10.8194 11.151 10.816 11.2586 10.7703 11.3497L10.6573 11.5752L11.6506 12.5685L11.8759 12.4555C11.9672 12.4095 12.0748 12.4065 12.1763 12.4488C12.273 12.4883 12.3468 12.567 12.3794 12.664L12.4591 12.9032H13.8632L13.943 12.664C13.9752 12.567 14.0493 12.4883 14.1517 12.4462C14.2475 12.4062 14.3551 12.4095 14.4465 12.4555L14.672 12.5685L15.6653 11.5752L15.5523 11.3499C15.5066 11.2586 15.5032 11.1512 15.5453 11.0495C15.585 10.9528 15.6635 10.8787 15.7608 10.8465L16 10.7667V9.36258L15.7608 9.28284C15.6635 9.25032 15.585 9.17626 15.543 9.07406V9.07406ZM15.4839 10.4039C15.2973 10.4973 15.1486 10.6568 15.0661 10.8578C14.985 11.0537 14.9778 11.2697 15.0436 11.4668L14.5636 11.9468C14.3665 11.8815 14.1499 11.8888 13.9502 11.9711C13.753 12.0519 13.5943 12.2003 13.5006 12.3871H12.8219C12.7283 12.2003 12.569 12.0519 12.368 11.9693C12.1721 11.888 11.9556 11.881 11.759 11.9468L11.279 11.4668C11.3445 11.2697 11.3373 11.0529 11.2547 10.8532C11.1737 10.656 11.0253 10.4973 10.8387 10.4039V9.72516C11.0255 9.63148 11.1739 9.47226 11.2565 9.27123C11.3375 9.07535 11.3448 8.85936 11.279 8.66219L11.759 8.18219C11.9564 8.24774 12.1729 8.24052 12.3724 8.15794C12.5695 8.07716 12.7283 7.92877 12.8219 7.74194H13.5006C13.5943 7.92877 13.7535 8.07716 13.9546 8.15974C14.1502 8.24077 14.3667 8.24774 14.5636 8.18219L15.0436 8.66219C14.9781 8.85936 14.9853 9.07613 15.0679 9.27561C15.1486 9.47277 15.297 9.63148 15.4839 9.72516V10.4039ZM13.1613 8.25806C12.1652 8.25806 11.3548 9.06839 11.3548 10.0645C11.3548 11.0606 12.1652 11.871 13.1613 11.871C14.1574 11.871 14.9677 11.0606 14.9677 10.0645C14.9677 9.06839 14.1574 8.25806 13.1613 8.25806ZM13.1613 11.3548C12.4498 11.3548 11.871 10.776 11.871 10.0645C11.871 9.35303 12.4498 8.77419 13.1613 8.77419C13.8728 8.77419 14.4516 9.35303 14.4516 10.0645C14.4516 10.776 13.8728 11.3548 13.1613 11.3548ZM13.1613 9.29032C12.7345 9.29032 12.3871 9.63768 12.3871 10.0645C12.3871 10.4914 12.7345 10.8387 13.1613 10.8387C13.5881 10.8387 13.9355 10.4914 13.9355 10.0645C13.9355 9.63768 13.5881 9.29032 13.1613 9.29032ZM13.1613 10.3226C13.0191 10.3226 12.9032 10.2067 12.9032 10.0645C12.9032 9.92232 13.0191 9.80645 13.1613 9.80645C13.3035 9.80645 13.4194 9.92232 13.4194 10.0645C13.4194 10.2067 13.3035 10.3226 13.1613 10.3226ZM6.30839 1.76284L6.07871 1.30065C6.43716 1.12258 6.82323 1.03226 7.22581 1.03226C8.31768 1.03226 9.29574 1.72361 9.65961 2.75277L9.1729 2.92465C8.88181 2.10142 8.09961 1.54839 7.22581 1.54839C6.90348 1.54839 6.59484 1.62065 6.30839 1.76284V1.76284ZM5.5089 2.46606L5.08 2.1791C5.20077 1.99871 5.34374 1.83406 5.50555 1.68955L5.84955 2.07432C5.72 2.18994 5.60542 2.32181 5.5089 2.46606ZM10.8387 6.19355V5.67742C11.408 5.67742 11.871 5.21445 11.871 4.64516C11.871 4.07587 11.408 3.6129 10.8387 3.6129V3.09677C11.6926 3.09677 12.3871 3.79123 12.3871 4.64516C12.3871 5.4991 11.6926 6.19355 10.8387 6.19355ZM2.06452 9.29032H1.54839V9.80645H1.03226V9.29032H0.516129V8.77419H1.03226V8.25806H1.54839V8.77419H2.06452V9.29032ZM2.06452 11.3548H1.54839V11.871H1.03226V11.3548H0.516129V10.8387H1.03226V10.3226H1.54839V10.8387H2.06452V11.3548ZM1.03226 13.9355V13.4194H0.516129V12.9032H1.03226V12.3871H1.54839V12.9032H2.06452V13.4194H1.54839V13.9355H1.03226ZM14.4516 2.06452H13.9355V1.54839H14.4516V1.03226H14.9677V1.54839H15.4839V2.06452H14.9677V2.58065H14.4516V2.06452ZM14.4516 4.12903H13.9355V3.6129H14.4516V3.09677H14.9677V3.6129H15.4839V4.12903H14.9677V4.64516H14.4516V4.12903ZM14.4516 6.19355H13.9355V5.67742H14.4516V5.16129H14.9677V5.67742H15.4839V6.19355H14.9677V6.70968H14.4516V6.19355Z" fill="url(#paint0_linear)"/>
<defs>
<linearGradient id="paint0_linear" x1="8" y1="16" x2="8" y2="0" gradientUnits="userSpaceOnUse">
<stop stopColor="#9F2FFF"/>
<stop offset="1" stopColor="#0BB1D3"/>
</linearGradient>
</defs>
</svg>
