<svg width="83" height="16" viewBox="0 0 83 16" fill="none" xmlns="http://www.w3.org/2000/svg">
<g clipPath="url(#clip0)">
<path d="M0.957196 10.8465C0.674065 10.8465 0.472892 10.6977 0.353679 10.4C0.241916 10.1023 0.186035 9.62604 0.186035 8.97116C0.186035 8.00372 0.323876 7.08465 0.599556 6.21395C0.666614 5.99813 0.774651 5.84185 0.923667 5.74511C1.08013 5.64092 1.29621 5.58883 1.57189 5.58883C1.72091 5.58883 1.82522 5.60744 1.88482 5.64465C1.94443 5.68186 1.97423 5.75255 1.97423 5.85674C1.97423 5.97581 1.91835 6.24372 1.80659 6.66046C1.73208 6.95813 1.67248 7.2186 1.62777 7.44186C1.58307 7.65767 1.54581 7.9293 1.51601 8.25674C1.71718 7.67627 1.95561 7.18511 2.23129 6.78325C2.51442 6.38139 2.80128 6.08372 3.09186 5.89023C3.38989 5.6893 3.6693 5.58883 3.93008 5.58883C4.19086 5.58883 4.3734 5.64837 4.47771 5.76744C4.58948 5.88651 4.64536 6.06883 4.64536 6.31441C4.64536 6.55255 4.57457 6.98418 4.43301 7.6093C4.3734 7.8772 4.33242 8.07813 4.31007 8.21209C4.68261 7.29674 5.09613 6.63069 5.55063 6.21395C6.00513 5.7972 6.42983 5.58883 6.82473 5.58883C7.30903 5.58883 7.55118 5.83069 7.55118 6.31441C7.55118 6.60465 7.46922 7.1293 7.3053 7.88837C7.16374 8.53581 7.09296 8.96372 7.09296 9.17209C7.09296 9.46976 7.20099 9.6186 7.41707 9.6186C7.56608 9.6186 7.74118 9.5293 7.94235 9.35069C8.15097 9.16465 8.42665 8.86697 8.76939 8.45767C8.8588 8.35348 8.95939 8.30139 9.07115 8.30139C9.16801 8.30139 9.24252 8.34604 9.29468 8.43534C9.35428 8.52465 9.38409 8.64744 9.38409 8.80372C9.38409 9.10139 9.3133 9.33209 9.17174 9.49581C8.85135 9.89023 8.50489 10.2139 8.13235 10.467C7.76726 10.72 7.35001 10.8465 6.88061 10.8465C6.50061 10.8465 6.21376 10.7386 6.02004 10.5228C5.82631 10.2995 5.72945 9.97953 5.72945 9.56279C5.72945 9.35441 5.78161 8.98232 5.88592 8.44651C5.98278 7.97767 6.03121 7.65395 6.03121 7.47534C6.03121 7.35627 5.99023 7.29674 5.90827 7.29674C5.81141 7.29674 5.67357 7.42325 5.49475 7.67627C5.31593 7.92186 5.13711 8.2493 4.95829 8.6586C4.77947 9.0679 4.63418 9.49953 4.52242 9.95348C4.44046 10.3107 4.3436 10.5488 4.23184 10.6679C4.12752 10.787 3.95616 10.8465 3.71773 10.8465C3.47185 10.8465 3.28558 10.7312 3.15892 10.5005C3.0397 10.2623 2.9801 9.97581 2.9801 9.64093C2.9801 9.35813 3.01735 8.94883 3.09186 8.41302C3.15147 7.93674 3.18127 7.62418 3.18127 7.47534C3.18127 7.35627 3.14029 7.29674 3.05833 7.29674C2.94657 7.29674 2.805 7.43069 2.63363 7.6986C2.46226 7.96651 2.29462 8.30883 2.1307 8.72558C1.97423 9.14232 1.84757 9.55162 1.75071 9.95348C1.66875 10.3033 1.57189 10.5414 1.46013 10.6679C1.35582 10.787 1.18817 10.8465 0.957196 10.8465ZM16.0653 8.32372C16.1622 8.32372 16.2367 8.37209 16.2888 8.46883C16.3485 8.55813 16.3783 8.67348 16.3783 8.81488C16.3783 8.98604 16.3522 9.12 16.3 9.21674C16.2479 9.31348 16.1659 9.39906 16.0541 9.47348L13.9083 10.9135C13.6252 12.4539 13.2526 13.6633 12.7907 14.5414C12.3362 15.427 11.755 15.8698 11.0472 15.8698C10.6672 15.8698 10.358 15.7507 10.1196 15.5126C9.88113 15.2819 9.76192 14.9767 9.76192 14.5972C9.76192 14.2474 9.84015 13.8902 9.99662 13.5256C10.1605 13.1609 10.4586 12.7405 10.8907 12.2642C11.3303 11.7953 11.9487 11.2558 12.746 10.6456L12.7795 10.3888C12.8317 10.1135 12.8913 9.71906 12.9583 9.20558C12.8093 9.74139 12.6007 10.1507 12.3325 10.4335C12.0642 10.7088 11.7811 10.8465 11.4831 10.8465C11.1478 10.8465 10.8721 10.6939 10.656 10.3888C10.4474 10.0763 10.3431 9.6893 10.3431 9.2279C10.3431 8.66976 10.3803 8.16 10.4548 7.6986C10.5294 7.22976 10.6523 6.73488 10.8237 6.21395C10.8982 5.99069 11.0025 5.83069 11.1366 5.73395C11.2707 5.6372 11.4831 5.58883 11.7736 5.58883C11.9376 5.58883 12.0493 5.61488 12.1089 5.66697C12.176 5.71906 12.2095 5.7972 12.2095 5.90139C12.2095 5.96092 12.1685 6.16186 12.0866 6.50418C12.0121 6.77953 11.9525 7.02883 11.9078 7.25209C11.8481 7.5572 11.796 7.85116 11.7513 8.13395C11.7066 8.4093 11.6842 8.63627 11.6842 8.81488C11.6842 9.09767 11.7625 9.23906 11.9189 9.23906C12.0307 9.23906 12.1685 9.12744 12.3325 8.90418C12.5038 8.68093 12.6826 8.34232 12.8689 7.88837C13.0626 7.43441 13.2489 6.87627 13.4277 6.21395C13.4873 5.99069 13.5767 5.83069 13.696 5.73395C13.8226 5.6372 14.0089 5.58883 14.2548 5.58883C14.4261 5.58883 14.5454 5.61116 14.6124 5.65581C14.6795 5.70046 14.713 5.77488 14.713 5.87906C14.713 6.06511 14.6161 6.70511 14.4224 7.79906L14.1318 9.59627C14.7055 9.16465 15.2644 8.77023 15.8083 8.41302C15.9051 8.35348 15.9908 8.32372 16.0653 8.32372ZM11.1701 14.787C11.3564 14.787 11.565 14.5712 11.796 14.1395C12.027 13.7079 12.2579 12.9898 12.4889 11.9851C11.9152 12.4688 11.498 12.9079 11.2372 13.3023C10.9839 13.7042 10.8572 14.0539 10.8572 14.3516C10.8572 14.4781 10.8795 14.5823 10.9242 14.6642C10.9764 14.746 11.0584 14.787 11.1701 14.787ZM26.2154 4.13767C26.2154 4.77023 26.0515 5.35069 25.7236 5.87906C25.3958 6.40744 24.919 6.83907 24.2931 7.17395C23.6672 7.50883 22.9221 7.70604 22.0578 7.76558L21.5773 10.4558C21.391 11.4902 20.8843 12.0074 20.0573 12.0074C19.6028 12.0074 19.1818 11.8735 18.7944 11.6056C18.4144 11.3377 18.1089 10.9284 17.8779 10.3777C17.6469 9.82697 17.5315 9.14976 17.5315 8.34604C17.5315 6.83534 17.7736 5.55534 18.2579 4.50604C18.7497 3.4493 19.4053 2.66046 20.2249 2.13953C21.052 1.61116 21.961 1.34697 22.9519 1.34697C23.6523 1.34697 24.2447 1.46976 24.729 1.71534C25.2207 1.96093 25.5895 2.29581 25.8354 2.71999C26.0887 3.13674 26.2154 3.6093 26.2154 4.13767ZM22.259 6.61581C23.7864 6.42232 24.5501 5.62976 24.5501 4.23813C24.5501 3.74697 24.3862 3.34883 24.0584 3.04372C23.738 2.73116 23.2388 2.57488 22.5608 2.57488C21.7933 2.57488 21.1228 2.81674 20.549 3.30046C19.9828 3.78418 19.5432 4.45767 19.2302 5.32092C18.9248 6.17674 18.772 7.15534 18.772 8.25674C18.772 8.71813 18.8167 9.12744 18.9061 9.48465C19.003 9.84186 19.1222 10.1209 19.2638 10.3219C19.4128 10.5153 19.5544 10.6121 19.6885 10.6121C19.8747 10.6121 20.0163 10.3553 20.1132 9.84186L20.482 7.73209C20.1914 7.68744 20.0647 7.66883 20.102 7.67627C19.8785 7.63906 19.7332 7.57209 19.6661 7.47534C19.5991 7.37116 19.5655 7.24093 19.5655 7.08465C19.5655 6.92093 19.6102 6.79069 19.6996 6.69395C19.7965 6.5972 19.9269 6.54883 20.0908 6.54883C20.1653 6.54883 20.2212 6.55255 20.2585 6.55999C20.4373 6.58976 20.5751 6.60837 20.672 6.61581C20.7688 6.03534 20.9067 5.25767 21.0855 4.28279C21.1302 4.02976 21.2308 3.85116 21.3873 3.74697C21.5512 3.63534 21.7412 3.57953 21.9573 3.57953C22.2031 3.57953 22.3782 3.6279 22.4825 3.72465C22.5943 3.81395 22.6502 3.95906 22.6502 4.15999C22.6502 4.27906 22.6427 4.37581 22.6278 4.45023L22.259 6.61581ZM33.5532 7.36372C33.65 7.36372 33.7245 7.41209 33.7767 7.50883C33.8288 7.60558 33.8549 7.72837 33.8549 7.8772C33.8549 8.23441 33.7469 8.44651 33.5308 8.51348C33.0838 8.66976 32.592 8.75906 32.0556 8.78139C31.914 9.40651 31.6346 9.90883 31.2173 10.2884C30.8001 10.6605 30.327 10.8465 29.7979 10.8465C29.3509 10.8465 28.9672 10.7386 28.6468 10.5228C28.3339 10.307 28.0954 10.0205 27.9315 9.66325C27.7676 9.30604 27.6856 8.91906 27.6856 8.50232C27.6856 7.93674 27.7937 7.43441 28.0097 6.99534C28.2258 6.54883 28.5239 6.20279 28.9038 5.9572C29.2838 5.70418 29.7048 5.57767 30.1668 5.57767C30.733 5.57767 31.1875 5.77488 31.5303 6.1693C31.8805 6.55627 32.0854 7.03627 32.145 7.6093C32.4951 7.58697 32.9124 7.51255 33.3967 7.38604C33.4563 7.37116 33.5085 7.36372 33.5532 7.36372ZM29.8874 9.66325C30.1258 9.66325 30.3307 9.56651 30.502 9.37302C30.6809 9.17953 30.8001 8.90046 30.8597 8.53581C30.6287 8.37953 30.4499 8.17488 30.3232 7.92186C30.204 7.66883 30.1444 7.40092 30.1444 7.11813C30.1444 6.99906 30.1556 6.88 30.1779 6.76093H30.1221C29.824 6.76093 29.5744 6.90604 29.3732 7.19627C29.1795 7.47906 29.0827 7.88093 29.0827 8.40186C29.0827 8.81116 29.1609 9.12372 29.3174 9.33953C29.4813 9.55534 29.6713 9.66325 29.8874 9.66325ZM39.2735 7.11813C39.4374 7.11813 39.5752 7.17767 39.687 7.29674C39.8062 7.40837 39.8658 7.54976 39.8658 7.72093C39.8658 7.81767 39.8435 7.92186 39.7988 8.03348C39.6795 8.30883 39.5119 8.53953 39.2958 8.72558C39.0797 8.91162 38.8413 9.00465 38.5805 9.00465C38.3719 9.00465 38.1931 8.93023 38.0441 8.78139C37.9025 8.63255 37.8317 8.43162 37.8317 8.1786C37.8317 8.0372 37.8392 7.88465 37.8541 7.72093C37.869 7.60186 37.8764 7.52 37.8764 7.47534C37.8764 7.41581 37.8615 7.37116 37.8317 7.34139C37.8094 7.31162 37.7796 7.29674 37.7423 7.29674C37.638 7.29674 37.4964 7.42325 37.3176 7.67627C37.1389 7.92186 36.9601 8.2493 36.7813 8.6586C36.6025 9.0679 36.4572 9.49953 36.3454 9.95348C36.2634 10.3107 36.1703 10.5488 36.066 10.6679C35.9617 10.787 35.7903 10.8465 35.5519 10.8465C35.2688 10.8465 35.0676 10.6977 34.9484 10.4C34.8366 10.1023 34.7807 9.62604 34.7807 8.97116C34.7807 8.00372 34.9186 7.08465 35.1942 6.21395C35.2613 5.99813 35.3693 5.84185 35.5184 5.74511C35.6748 5.64092 35.8909 5.58883 36.1666 5.58883C36.3156 5.58883 36.4199 5.60744 36.4795 5.64465C36.5391 5.68186 36.5689 5.75255 36.5689 5.85674C36.5689 5.97581 36.513 6.24372 36.4013 6.66046C36.3268 6.95813 36.2672 7.2186 36.2225 7.44186C36.1778 7.66511 36.1405 7.94046 36.1107 8.2679C36.3566 7.6279 36.6323 7.10697 36.9377 6.70511C37.2432 6.30325 37.5411 6.01674 37.8317 5.84558C38.1223 5.67441 38.3868 5.58883 38.6252 5.58883C38.8413 5.58883 39.0052 5.65209 39.117 5.7786C39.2362 5.89767 39.2958 6.07627 39.2958 6.31441C39.2958 6.45581 39.2548 6.72372 39.1729 7.11813H39.2735ZM47.1393 8.30139C47.2362 8.30139 47.3107 8.34604 47.3628 8.43534C47.4224 8.52465 47.4522 8.64744 47.4522 8.80372C47.4522 9.10139 47.3815 9.33209 47.2399 9.49581C46.9195 9.89023 46.5693 10.2139 46.1893 10.467C45.8093 10.72 45.3735 10.8465 44.8817 10.8465C43.3617 10.8465 42.6018 9.7786 42.6018 7.64279C42.6018 7.31534 42.6129 6.98418 42.6353 6.6493H42.1994C41.9759 6.6493 41.8231 6.60837 41.7412 6.52651C41.6667 6.44465 41.6294 6.31441 41.6294 6.13581C41.6294 5.71906 41.7971 5.51069 42.1324 5.51069H42.7694C42.8961 4.69209 43.0898 3.94418 43.3506 3.26697C43.6113 2.58976 43.9243 2.05023 44.2894 1.64837C44.6619 1.24651 45.0605 1.04558 45.4852 1.04558C45.7982 1.04558 46.044 1.18325 46.2229 1.4586C46.4017 1.73395 46.4911 2.07999 46.4911 2.49674C46.4911 3.65023 46.0068 4.65488 45.0382 5.51069H46.2899C46.4091 5.51069 46.4948 5.53674 46.547 5.58883C46.5991 5.64093 46.6252 5.73767 46.6252 5.87906C46.6252 6.39255 46.2042 6.6493 45.3623 6.6493H43.9988C43.9839 7.02139 43.9764 7.31162 43.9764 7.51999C43.9764 8.29395 44.0658 8.8372 44.2447 9.14976C44.4309 9.46232 44.7215 9.6186 45.1164 9.6186C45.4368 9.6186 45.7199 9.52186 45.9658 9.32837C46.2117 9.13488 46.5023 8.84465 46.8375 8.45767C46.927 8.35348 47.0275 8.30139 47.1393 8.30139ZM45.1835 2.1172C45.0717 2.1172 44.945 2.2586 44.8035 2.54139C44.6694 2.81674 44.539 3.20372 44.4123 3.70232C44.2931 4.19348 44.1925 4.74046 44.1105 5.34325C44.5501 4.96372 44.878 4.53953 45.0941 4.07069C45.3176 3.59441 45.4293 3.16279 45.4293 2.77581C45.4293 2.33674 45.3474 2.1172 45.1835 2.1172ZM54.1047 7.36372C54.2016 7.36372 54.2761 7.41209 54.3282 7.50883C54.3804 7.60558 54.4065 7.72837 54.4065 7.8772C54.4065 8.23441 54.2984 8.44651 54.0824 8.51348C53.6353 8.66976 53.1436 8.75906 52.6071 8.78139C52.4655 9.40651 52.1861 9.90883 51.7689 10.2884C51.3516 10.6605 50.8785 10.8465 50.3495 10.8465C49.9024 10.8465 49.5187 10.7386 49.1983 10.5228C48.8854 10.307 48.647 10.0205 48.4831 9.66325C48.3191 9.30604 48.2372 8.91906 48.2372 8.50232C48.2372 7.93674 48.3452 7.43441 48.5613 6.99534C48.7774 6.54883 49.0754 6.20279 49.4554 5.9572C49.8354 5.70418 50.2564 5.57767 50.7183 5.57767C51.2846 5.57767 51.7391 5.77488 52.0818 6.1693C52.432 6.55627 52.6369 7.03627 52.6965 7.6093C53.0467 7.58697 53.4639 7.51255 53.9482 7.38604C54.0079 7.37116 54.06 7.36372 54.1047 7.36372ZM50.4389 9.66325C50.6773 9.66325 50.8822 9.56651 51.0536 9.37302C51.2324 9.17953 51.3516 8.90046 51.4112 8.53581C51.1803 8.37953 51.0014 8.17488 50.8748 7.92186C50.7556 7.66883 50.696 7.40092 50.696 7.11813C50.696 6.99906 50.7071 6.88 50.7295 6.76093H50.6736C50.3756 6.76093 50.126 6.90604 49.9248 7.19627C49.7311 7.47906 49.6342 7.88093 49.6342 8.40186C49.6342 8.81116 49.7125 9.12372 49.8689 9.33953C50.0328 9.55534 50.2228 9.66325 50.4389 9.66325ZM59.7692 7.66511C59.9778 7.66511 60.0821 7.82139 60.0821 8.13395C60.0821 8.72186 59.6202 9.01581 58.6963 9.01581C58.5175 9.01581 58.2604 8.98232 57.9251 8.91534C58.022 9.37674 58.1002 9.89023 58.1598 10.4558C58.2269 11.0139 58.2604 11.4753 58.2604 11.84C58.2604 12.6437 58.13 13.2577 57.8693 13.6819C57.6085 14.106 57.2657 14.3181 56.841 14.3181C56.3046 14.3181 55.9209 13.9386 55.6899 13.1795C55.4664 12.4205 55.3546 11.2744 55.3546 9.74139C55.3546 8.31255 55.5073 6.86511 55.8128 5.39906C56.1258 3.92558 56.5505 2.70883 57.0869 1.74883C57.6308 0.78139 58.2269 0.297668 58.8751 0.297668C59.2253 0.297668 59.4973 0.453948 59.691 0.766506C59.8922 1.07906 59.9927 1.49953 59.9927 2.0279C59.9927 3.77674 58.9459 5.68186 56.8522 7.74325C56.7777 8.47255 56.7405 9.11255 56.7405 9.66325C56.7405 10.4298 56.7665 11.2149 56.8187 12.0186C56.8708 12.8298 56.9565 13.2353 57.0757 13.2353C57.2993 13.2353 57.411 12.8484 57.411 12.0744C57.411 11.4939 57.37 10.9321 57.2881 10.3888C57.2136 9.84558 57.1093 9.27255 56.9751 8.66976C56.9677 8.57302 56.9975 8.45023 57.0646 8.30139C57.1391 8.15255 57.2285 8.02232 57.3328 7.91069C57.4371 7.79906 57.5302 7.74325 57.6122 7.74325C57.7612 7.74325 57.94 7.75069 58.1487 7.76558C58.2157 7.77302 58.2939 7.77674 58.3834 7.77674C58.6814 7.77674 59.013 7.75069 59.378 7.6986C59.4376 7.69116 59.501 7.68372 59.568 7.67627C59.6351 7.66883 59.7022 7.66511 59.7692 7.66511ZM58.6404 1.40279C58.5063 1.40279 58.3387 1.62976 58.1375 2.08372C57.9438 2.53767 57.75 3.14046 57.5563 3.89209C57.3626 4.63627 57.195 5.42511 57.0534 6.2586C57.6495 5.58139 58.1077 4.87813 58.4281 4.14883C58.7485 3.41209 58.9124 2.72372 58.9198 2.08372C58.9198 1.62976 58.8267 1.40279 58.6404 1.40279ZM66.8017 7.36372C66.8985 7.36372 66.973 7.41209 67.0252 7.50883C67.0774 7.60558 67.1034 7.72837 67.1034 7.8772C67.1034 8.23441 66.9954 8.44651 66.7793 8.51348C66.3323 8.66976 65.8405 8.75906 65.3041 8.78139C65.1625 9.40651 64.8831 9.90883 64.4658 10.2884C64.0486 10.6605 63.5755 10.8465 63.0465 10.8465C62.5994 10.8465 62.2157 10.7386 61.8953 10.5228C61.5824 10.307 61.3439 10.0205 61.18 9.66325C61.0161 9.30604 60.9341 8.91906 60.9341 8.50232C60.9341 7.93674 61.0422 7.43441 61.2583 6.99534C61.4743 6.54883 61.7724 6.20279 62.1524 5.9572C62.5324 5.70418 62.9533 5.57767 63.4153 5.57767C63.9815 5.57767 64.436 5.77488 64.7788 6.1693C65.129 6.55627 65.3339 7.03627 65.3935 7.6093C65.7437 7.58697 66.1609 7.51255 66.6452 7.38604C66.7048 7.37116 66.757 7.36372 66.8017 7.36372ZM63.1359 9.66325C63.3743 9.66325 63.5792 9.56651 63.7506 9.37302C63.9294 9.17953 64.0486 8.90046 64.1082 8.53581C63.8772 8.37953 63.6984 8.17488 63.5717 7.92186C63.4525 7.66883 63.3929 7.40092 63.3929 7.11813C63.3929 6.99906 63.4041 6.88 63.4265 6.76093H63.3706C63.0725 6.76093 62.8229 6.90604 62.6218 7.19627C62.428 7.47906 62.3312 7.88093 62.3312 8.40186C62.3312 8.81116 62.4094 9.12372 62.5659 9.33953C62.7298 9.55534 62.9198 9.66325 63.1359 9.66325ZM72.2427 8.30139C72.3395 8.30139 72.414 8.34604 72.4662 8.43534C72.5258 8.52465 72.5556 8.64744 72.5556 8.80372C72.5556 9.10139 72.4848 9.33209 72.3432 9.49581C72.0228 9.89023 71.6727 10.2139 71.2927 10.467C70.9201 10.72 70.4954 10.8465 70.0186 10.8465C69.3629 10.8465 68.8749 10.5488 68.5545 9.95348C68.2416 9.35813 68.0851 8.5879 68.0851 7.64279C68.0851 6.73488 68.2006 5.70046 68.4315 4.53953C68.67 3.3786 69.0164 2.38139 69.4709 1.5479C69.9329 0.714413 70.4805 0.297668 71.1139 0.297668C71.4715 0.297668 71.7509 0.465111 71.9521 0.799995C72.1607 1.12744 72.265 1.59999 72.265 2.21767C72.265 3.10325 72.0191 4.13023 71.5274 5.2986C71.0356 6.46697 70.3688 7.62418 69.5268 8.77023C69.579 9.07534 69.6647 9.29488 69.7839 9.42883C69.9031 9.55534 70.0596 9.6186 70.2533 9.6186C70.5588 9.6186 70.827 9.53302 71.058 9.36186C71.2889 9.18325 71.5832 8.88186 71.9409 8.45767C72.0303 8.35348 72.1309 8.30139 72.2427 8.30139ZM70.868 1.40279C70.6966 1.40279 70.5029 1.71162 70.2868 2.3293C70.0707 2.94697 69.8807 3.71348 69.7168 4.62883C69.5529 5.54418 69.4635 6.42232 69.4486 7.26325C69.9776 6.39255 70.3986 5.52186 70.7115 4.65116C71.0244 3.77302 71.1809 2.97302 71.1809 2.25116C71.1809 1.68558 71.0766 1.40279 70.868 1.40279ZM74.9793 4.85209C74.6664 4.85209 74.4317 4.78139 74.2752 4.63999C74.1188 4.49116 74.0405 4.28651 74.0405 4.02604C74.0405 3.76558 74.1411 3.54976 74.3423 3.3786C74.5509 3.19999 74.808 3.11069 75.1135 3.11069C75.3891 3.11069 75.6127 3.17767 75.784 3.31162C75.9554 3.44558 76.0411 3.63534 76.0411 3.88093C76.0411 4.1786 75.9442 4.41674 75.7505 4.59534C75.5568 4.76651 75.2997 4.85209 74.9793 4.85209ZM74.8899 10.8465C74.4056 10.8465 74.0517 10.6753 73.8282 10.333C73.6121 9.99069 73.5041 9.53674 73.5041 8.97116C73.5041 8.63627 73.5451 8.20837 73.627 7.68744C73.7164 7.15906 73.8282 6.6679 73.9623 6.21395C74.0294 5.97581 74.1188 5.81209 74.2305 5.72279C74.3423 5.63348 74.5211 5.58883 74.767 5.58883C75.147 5.58883 75.337 5.71534 75.337 5.96837C75.337 6.15441 75.2662 6.58604 75.1246 7.26325C74.9458 8.08186 74.8564 8.63627 74.8564 8.92651C74.8564 9.14976 74.8862 9.32093 74.9458 9.44C75.0054 9.55907 75.106 9.6186 75.2476 9.6186C75.3817 9.6186 75.5493 9.52558 75.7505 9.33953C75.9517 9.15348 76.2199 8.85953 76.5552 8.45767C76.6446 8.35348 76.7452 8.30139 76.8569 8.30139C76.9538 8.30139 77.0283 8.34604 77.0805 8.43534C77.1401 8.52465 77.1699 8.64744 77.1699 8.80372C77.1699 9.10139 77.0991 9.33209 76.9575 9.49581C76.2199 10.3963 75.5307 10.8465 74.8899 10.8465ZM80.0168 10.8465C79.5772 10.8465 79.201 10.7386 78.888 10.5228C78.5826 10.2995 78.3516 10.0093 78.1951 9.65209C78.0387 9.29488 77.9604 8.91162 77.9604 8.50232C77.9604 7.93674 78.0647 7.43441 78.2733 6.99534C78.4894 6.54883 78.78 6.20279 79.1451 5.9572C79.5102 5.70418 79.92 5.57767 80.3745 5.57767C80.8141 5.57767 81.1903 5.6893 81.5033 5.91255C81.8162 6.12837 82.0509 6.41488 82.2074 6.77209C82.3639 7.1293 82.4421 7.51255 82.4421 7.92186C82.4421 8.48744 82.3341 8.99348 82.118 9.44C81.9019 9.87907 81.6076 10.2251 81.2351 10.4781C80.87 10.7237 80.4639 10.8465 80.0168 10.8465ZM80.1398 9.64093C80.3931 9.64093 80.6055 9.50325 80.7768 9.2279C80.9556 8.95255 81.0451 8.55069 81.0451 8.02232C81.0451 7.61302 80.9706 7.30418 80.8215 7.09581C80.6725 6.88744 80.4937 6.78325 80.2851 6.78325C80.0168 6.78325 79.7933 6.92093 79.6145 7.19627C79.4431 7.46418 79.3574 7.86604 79.3574 8.40186C79.3574 8.82604 79.432 9.1386 79.581 9.33953C79.73 9.54046 79.9163 9.64093 80.1398 9.64093Z" fill="#0BB1D3"/>
</g>
<defs>
<clipPath id="clip0">
<rect width="82.7042" height="16" fill="white"/>
</clipPath>
</defs>
</svg>
