<svg width="16" height="16" viewBox="0 0 16 16" fill="none" xmlns="http://www.w3.org/2000/svg">
<g clipPath="url(#clip0)">
<path d="M3.87097 4.12903C3.30166 4.12903 2.83871 4.59199 2.83871 5.16129C2.83871 5.73059 3.30166 6.19355 3.87097 6.19355C4.44027 6.19355 4.90323 5.73059 4.90323 5.16129C4.90323 4.59199 4.44027 4.12903 3.87097 4.12903ZM3.87097 5.67742C3.58632 5.67742 3.35484 5.44594 3.35484 5.16129C3.35484 4.87664 3.58632 4.64516 3.87097 4.64516C4.15562 4.64516 4.3871 4.87664 4.3871 5.16129C4.3871 5.44594 4.15562 5.67742 3.87097 5.67742ZM14.7097 0H0.915071C0.410534 0 0 0.410534 0 0.915071C0 1.23765 0.172631 1.53957 0.450353 1.70325L2.83871 3.11076V3.37626C2.22266 3.73362 1.80645 4.39919 1.80645 5.16129C1.80645 5.55796 1.92074 5.92717 2.1153 6.24206L0.114541 10.0532C0.0394405 10.1845 0 10.3337 0 10.4851C0 10.8387 0.212702 11.1421 0.516129 11.2782V12.3871H1.03226V11.3484C1.30582 11.3174 1.5528 11.1576 1.69493 10.9084L3.62991 7.21056C3.70917 7.21988 3.78944 7.22581 3.87097 7.22581C3.95249 7.22581 4.03276 7.21988 4.11202 7.21056L6.05166 10.9166C6.18989 11.1588 6.43637 11.3174 6.70993 11.3484V12.3871H7.22606V11.278C7.52949 11.1419 7.74219 10.8385 7.74219 10.4849C7.74219 10.3334 7.70275 10.1842 7.63206 10.0611L5.62689 6.24181C5.82119 5.92717 5.93548 5.55796 5.93548 5.16129C5.93548 5.08203 5.93007 5.00416 5.92124 4.92692L9.29032 6.9123V14.1935C9.29032 15.1894 10.1009 16 11.0968 16C12.0926 16 12.9032 15.1894 12.9032 14.1935V9.04158L14.3881 9.91633C14.5525 10.0134 14.7402 10.0645 14.9308 10.0645C15.5205 10.0645 16 9.58506 16 8.99534V1.29032C16 0.578881 15.4211 0 14.7097 0V0ZM4.3871 3.16469C4.22165 3.12185 4.04952 3.09677 3.87097 3.09677C3.69241 3.09677 3.52029 3.12185 3.35484 3.16469V1.80645C3.35484 1.66406 3.47051 1.54839 3.6129 1.54839H4.12903C4.27142 1.54839 4.3871 1.66406 4.3871 1.80645V3.16469ZM1.24231 10.6607C1.17956 10.7703 1.062 10.8387 0.935232 10.8387H0.869708C0.674521 10.8387 0.516129 10.6803 0.516129 10.4851C0.516129 10.4238 0.532132 10.3628 0.567288 10.3014L2.47127 6.67452C2.65776 6.84728 2.87513 6.98576 3.1153 7.08077L1.24231 10.6607ZM2.32258 5.16129C2.32258 4.30733 3.01701 3.6129 3.87097 3.6129C4.72492 3.6129 5.41935 4.30733 5.41935 5.16129C5.41935 6.01525 4.72492 6.70968 3.87097 6.70968C3.01701 6.70968 2.32258 6.01525 2.32258 5.16129ZM7.22581 10.4851C7.22581 10.6803 7.06741 10.8387 6.87223 10.8387H6.8067C6.67994 10.8387 6.56237 10.7703 6.50403 10.6689L4.62626 7.08077C4.86656 6.98576 5.08417 6.84728 5.27041 6.67452L7.17906 10.3097C7.20955 10.3628 7.22581 10.4238 7.22581 10.4851ZM10.1094 4.64516L11.0968 3.4932L12.0842 4.64516H10.1094ZM10.8387 5.16129V12.3871H9.80645V5.16129H10.8387ZM9.80645 12.9032H12.3871V13.4194H9.80645V12.9032ZM11.3548 12.3871V5.16129H12.3871V12.3871H11.3548ZM11.0968 2.70035L9.79763 4.21598L7.02268 2.58065H13.4194V6.34992L12.9032 6.04599V4.80771L11.0968 2.70035ZM11.0968 15.4839C10.3853 15.4839 9.80645 14.905 9.80645 14.1935V13.9355H12.3871V14.1935C12.3871 14.905 11.8082 15.4839 11.0968 15.4839ZM15.4839 8.99534C15.4839 9.3004 15.2359 9.54839 14.9308 9.54839C14.8323 9.54839 14.735 9.5218 14.6501 9.47177L12.9032 8.44254V6.64491L13.9355 7.25315V2.06452H5.13004L9.45653 4.61391L9.29032 4.80771V6.31326L5.69367 4.1938C5.51197 3.85295 5.2369 3.56981 4.90323 3.37601V1.80645C4.90323 1.37966 4.55582 1.03226 4.12903 1.03226H3.6129C3.18611 1.03226 2.83871 1.37966 2.83871 1.80645V2.51172L0.712198 1.25857C0.59123 1.18737 0.516129 1.05544 0.516129 0.914819C0.516129 0.694934 0.694934 0.516129 0.915071 0.516129H14.7097C15.1365 0.516129 15.4839 0.863533 15.4839 1.29032V8.99534Z" fill="url(#paint0_linear)"/>
</g>
<defs>
<linearGradient id="paint0_linear" x1="8" y1="16" x2="8" y2="0" gradientUnits="userSpaceOnUse">
<stop stopColor="#9F2FFF"/>
<stop offset="1" stopColor="#0BB1D3"/>
</linearGradient>
<clipPath id="clip0">
<rect width="16" height="16" fill="white"/>
</clipPath>
</defs>
</svg>
