<svg width="16" height="16" viewBox="0 0 16 16" fill="none" xmlns="http://www.w3.org/2000/svg">
<g clipPath="url(#clip0)">
<path d="M4.12897 15.4841C4.12897 14.9148 3.66601 14.4519 3.09672 14.4519H1.54836V11.6132C1.54836 11.2772 1.76487 10.9933 2.06448 10.8865V12.1293C2.06448 12.8408 2.64331 13.4196 3.35478 13.4196H3.54085L3.59968 13.2431C3.6211 13.1783 4.12897 11.6341 4.12897 9.80678C4.12897 7.97946 3.6211 6.43522 3.59968 6.37045L3.54085 6.19394H3.35478C2.64331 6.19394 2.06448 6.77277 2.06448 7.48424V8.78977C0.905018 8.9188 0 9.90381 0 11.0971V16.0002H4.12897V15.4841ZM2.5806 7.48424C2.5806 7.12115 2.83195 6.8156 3.16976 6.73225C3.30317 7.20011 3.61285 8.43442 3.61285 9.80678C3.61285 11.1791 3.30317 12.4135 3.16976 12.8813C2.83195 12.798 2.5806 12.4924 2.5806 12.1293V7.48424ZM0.516121 11.0971C0.516121 10.189 1.19043 9.43724 2.06448 9.31131V10.349C1.47636 10.469 1.03224 10.9902 1.03224 11.6132V14.4808C0.842051 14.5197 0.666054 14.5979 0.516121 14.7104V11.0971ZM0.560249 15.4841C0.666828 15.1837 0.953791 14.968 1.2903 14.968H3.09672C3.38136 14.968 3.61285 15.1995 3.61285 15.4841H0.560249ZM1.80642 1.03273C1.37959 1.03273 1.03224 1.38008 1.03224 1.80691V3.61333H1.54836V3.09721H2.06448V3.61333H2.5806V1.80691C2.5806 1.38008 2.23325 1.03273 1.80642 1.03273ZM1.54836 2.58109V1.80691C1.54836 1.66472 1.66423 1.54885 1.80642 1.54885C1.94861 1.54885 2.06448 1.66472 2.06448 1.80691V2.58109H1.54836ZM3.87091 1.03273H3.09672V3.61333H3.61285V2.58109H3.87091C4.29774 2.58109 4.64509 2.23374 4.64509 1.80691C4.64509 1.38008 4.29774 1.03273 3.87091 1.03273ZM3.87091 2.06497H3.61285V1.54885H3.87091C4.0131 1.54885 4.12897 1.66472 4.12897 1.80691C4.12897 1.9491 4.0131 2.06497 3.87091 2.06497ZM9.03237 6.19368C8.60554 6.19368 8.25819 6.54103 8.25819 6.96786C8.25819 7.39469 8.60554 7.74204 9.03237 7.74204C9.4592 7.74204 9.80655 7.39469 9.80655 6.96786C9.80655 6.54103 9.4592 6.19368 9.03237 6.19368ZM9.03237 7.22592C8.89018 7.22592 8.77431 7.11005 8.77431 6.96786C8.77431 6.82567 8.89018 6.7098 9.03237 6.7098C9.17456 6.7098 9.29043 6.82567 9.29043 6.96786C9.29043 7.11005 9.17456 7.22592 9.03237 7.22592ZM11.1255 2.06471H9.03237C8.56735 2.06471 8.12942 2.17929 7.74181 2.37826V1.29079C7.74181 0.579318 7.16298 0.000488281 6.45151 0.000488281H1.2903C0.578829 0.000488281 0 0.579318 0 1.29079V3.35527C0 4.06675 0.578829 4.64557 1.2903 4.64557H3.76407L4.61386 5.49537C4.73154 5.61304 4.88792 5.67782 5.05437 5.67782C5.39785 5.67782 5.67733 5.39834 5.67733 5.05486V4.64557H6.20687C6.19913 4.73073 6.19371 4.81641 6.19371 4.90364C6.19371 5.2915 6.48067 5.61356 6.85357 5.66904C6.76221 5.82285 6.70983 6.00246 6.70983 6.19394V9.54846C6.70983 10.829 7.75188 11.871 9.03237 11.871H9.27804C8.72992 12.2065 8.35806 12.7781 8.27806 13.4199H6.96763C6.5408 13.4199 6.19345 13.7672 6.19345 14.1941V14.4521H5.16121C4.87657 14.4521 4.64509 14.6836 4.64509 14.9682V15.4844C4.64509 15.769 4.87657 16.0005 5.16121 16.0005H8.51599H10.5805C11.5763 16.0005 12.3869 15.1899 12.3869 14.1941V12.6454C12.3869 12.3257 12.2656 12.0364 12.0723 11.8109L12.936 11.4653C14.7972 10.7208 16 8.94434 16 6.93947C16 4.25126 13.8132 2.06471 11.1255 2.06471V2.06471ZM5.16121 4.12945V5.05486C5.16121 5.14183 5.04018 5.19215 4.97876 5.13047L3.97774 4.12945H1.2903C0.86347 4.12945 0.516121 3.7821 0.516121 3.35527V1.29079C0.516121 0.863958 0.86347 0.516609 1.2903 0.516609H6.45151C6.87834 0.516609 7.22569 0.863958 7.22569 1.29079V2.71554C7.08685 2.83038 6.95886 2.95838 6.84402 3.09721H6.19345V1.54885H6.70957V1.03273H5.16121V1.54885H5.67733V3.09721H5.16121V3.61333H6.50699C6.42312 3.77694 6.35499 3.94933 6.30364 4.12945H5.16121ZM7.22595 9.2904H9.26437C9.14463 9.87852 8.62309 10.3226 8.00013 10.3226H7.40272C7.29046 10.0876 7.22595 9.82588 7.22595 9.54846V9.2904ZM7.77046 10.8388H8.00013C8.99624 10.8388 9.80655 10.0285 9.80655 9.03234V8.77428H7.22595V6.19394C7.22595 5.9093 7.45743 5.67782 7.74207 5.67782H10.5805C10.5818 5.67782 10.5831 5.67756 10.5841 5.67756H10.8388C11.2656 5.67756 11.613 6.02491 11.613 6.45174V7.48398H12.1291C12.5559 7.48398 12.9033 7.83133 12.9033 8.25816C12.9033 8.68499 12.5559 9.03234 12.1291 9.03234H11.7116L11.6403 9.17505C11.3007 9.85426 11.2535 10.6403 11.4981 11.3549H9.03237C8.54154 11.3549 8.09639 11.1575 7.77046 10.8388ZM9.81481 12.176L9.90952 12.1404C9.84242 12.2981 9.80629 12.4687 9.80629 12.6452V13.4196H8.79599C8.88837 12.8607 9.27417 12.3786 9.81481 12.176ZM6.70957 14.1938C6.70957 14.0516 6.82544 13.9357 6.96763 13.9357H7.78929C7.76039 14.017 7.74181 14.103 7.74181 14.1938V14.4519H6.70957V14.1938ZM5.16121 14.968H7.74181V15.226C7.74181 15.3169 7.76039 15.4031 7.78929 15.4841H5.16121V14.968ZM11.8708 14.1936C11.8708 14.905 11.2919 15.4839 10.5805 15.4839H8.51599C8.3738 15.4839 8.25793 15.368 8.25793 15.2258V14.1936C8.25793 14.0516 8.37354 13.936 8.51548 13.9355H8.51599H10.3227V12.6449C10.3227 12.438 10.4032 12.2436 10.5493 12.0973C10.6945 11.952 10.8873 11.872 11.0927 11.871H11.0966V11.8707C11.5234 11.8707 11.8708 12.2181 11.8708 12.6449V14.1936ZM12.7443 10.9856L12.0158 11.277C11.7988 10.7185 11.8068 10.0981 12.0365 9.54821H12.1291C12.8406 9.54821 13.4194 8.96938 13.4194 8.2579C13.4194 7.54643 12.8406 6.9676 12.1291 6.9676V6.45148C12.1291 5.93536 11.8225 5.49227 11.3836 5.28608C11.5247 5.10957 11.6127 4.88867 11.6127 4.64557C11.6127 4.07629 11.1498 3.61333 10.5805 3.61333H10.0644V4.12945H10.5805C10.8651 4.12945 11.0966 4.36093 11.0966 4.64557C11.0966 4.92893 10.8672 5.15937 10.5841 5.16144H10.0646V5.1617L6.96789 5.16144C6.8257 5.16144 6.70983 5.04557 6.70983 4.90338C6.70983 3.62288 7.75188 2.58083 9.03237 2.58083H11.1255C13.5288 2.58083 15.4839 4.5359 15.4839 6.93922C15.4839 8.73144 14.4085 10.3198 12.7443 10.9856Z" fill="url(#paint0_linear)"/>
</g>
<defs>
<linearGradient id="paint0_linear" x1="8.00013" y1="16.0002" x2="8.00013" y2="0.000488281" gradientUnits="userSpaceOnUse">
<stop stopColor="#9F2FFF"/>
<stop offset="1" stopColor="#0BB1D3"/>
</linearGradient>
<clipPath id="clip0">
<rect width="16" height="16" fill="white"/>
</clipPath>
</defs>
</svg>
